<svg width="256" height="184" viewBox="0 0 256 184" fill="none" xmlns="http://www.w3.org/2000/svg">
<path d="M37.5323 160.773C28.8971 137.065 9.59924 152.038 0.31543 162.512V187.223H255.156V107.243C251.907 105.814 244.768 106.405 242.54 116.689C234.971 146.288 219.832 145.029 214.771 127.367C210.594 91.659 216.164 58.8081 202.238 55.9515C185.527 51.6666 189.705 31.6703 188.313 15.959C184.135 -6.89389 163.246 -2.60898 163.246 20.2439C163.246 43.0967 163.246 65.9496 152.106 71.6628C128.432 83.0892 143.292 136.628 132.151 143.769C107.085 156.624 116.43 107.243 102.504 107.243C91.3634 107.243 88.0475 97.3723 88.0475 91.6591C83.8697 44.525 61.5886 87.3742 61.5886 130.223C61.5886 173.072 47.625 188.483 37.5323 160.773Z" fill="#F9F9F9"/>
</svg>
